<mxfile host="app.diagrams.net" agent="Mozilla/5.0 (Windows NT 10.0; Win64; x64) AppleWebKit/537.36 (KHTML, like Gecko) Chrome/136.0.0.0 Safari/537.36" version="27.0.6">
  <diagram name="Page-1" id="Er2LfURhmUxnrbUNcITh">
    <mxGraphModel grid="1" page="1" gridSize="10" guides="1" tooltips="1" connect="1" arrows="1" fold="1" pageScale="1" pageWidth="850" pageHeight="1100" math="0" shadow="0">
      <root>
        <mxCell id="0" />
        <mxCell id="1" parent="0" />
        <mxCell id="Xqfd5S_WJphhNs4EICbN-2" value="Employee" style="swimlane;fontStyle=1;align=center;verticalAlign=top;childLayout=stackLayout;horizontal=1;startSize=26;horizontalStack=0;resizeParent=1;resizeParentMax=0;resizeLast=0;collapsible=1;marginBottom=0;whiteSpace=wrap;html=1;" vertex="1" parent="1">
          <mxGeometry x="330" y="-70" width="150" height="240" as="geometry" />
        </mxCell>
        <mxCell id="Xqfd5S_WJphhNs4EICbN-3" value="# name:string&lt;div&gt;# id:int&lt;/div&gt;&lt;div&gt;#age:int&lt;/div&gt;" style="text;strokeColor=none;fillColor=none;align=left;verticalAlign=top;spacingLeft=4;spacingRight=4;overflow=hidden;rotatable=0;points=[[0,0.5],[1,0.5]];portConstraint=eastwest;whiteSpace=wrap;html=1;" vertex="1" parent="Xqfd5S_WJphhNs4EICbN-2">
          <mxGeometry y="26" width="150" height="64" as="geometry" />
        </mxCell>
        <mxCell id="Xqfd5S_WJphhNs4EICbN-4" value="" style="line;strokeWidth=1;fillColor=none;align=left;verticalAlign=middle;spacingTop=-1;spacingLeft=3;spacingRight=3;rotatable=0;labelPosition=right;points=[];portConstraint=eastwest;strokeColor=inherit;" vertex="1" parent="Xqfd5S_WJphhNs4EICbN-2">
          <mxGeometry y="90" width="150" height="8" as="geometry" />
        </mxCell>
        <mxCell id="Xqfd5S_WJphhNs4EICbN-5" value="+ getName() : string&lt;div&gt;+ getId() : int&lt;/div&gt;&lt;div&gt;+ getAge() : int&lt;/div&gt;&lt;div&gt;+ setName(string) : void&lt;/div&gt;&lt;div&gt;+ setId(int) : void&lt;/div&gt;&lt;div&gt;+ setAge(int) : void&lt;/div&gt;&lt;div&gt;+ Employee()&amp;nbsp;&lt;/div&gt;&lt;div&gt;+ Employee(string, int, int)&lt;/div&gt;&lt;div&gt;+ getInfo() : string&lt;/div&gt;" style="text;strokeColor=none;fillColor=none;align=left;verticalAlign=top;spacingLeft=4;spacingRight=4;overflow=hidden;rotatable=0;points=[[0,0.5],[1,0.5]];portConstraint=eastwest;whiteSpace=wrap;html=1;" vertex="1" parent="Xqfd5S_WJphhNs4EICbN-2">
          <mxGeometry y="98" width="150" height="142" as="geometry" />
        </mxCell>
        <mxCell id="Xqfd5S_WJphhNs4EICbN-6" value="Teacher" style="swimlane;fontStyle=1;align=center;verticalAlign=top;childLayout=stackLayout;horizontal=1;startSize=26;horizontalStack=0;resizeParent=1;resizeParentMax=0;resizeLast=0;collapsible=1;marginBottom=0;whiteSpace=wrap;html=1;" vertex="1" parent="1">
          <mxGeometry x="40" y="240" width="160" height="210" as="geometry" />
        </mxCell>
        <mxCell id="Xqfd5S_WJphhNs4EICbN-7" value="- subject : string&lt;div&gt;- hours : int&lt;/div&gt;" style="text;strokeColor=none;fillColor=none;align=left;verticalAlign=top;spacingLeft=4;spacingRight=4;overflow=hidden;rotatable=0;points=[[0,0.5],[1,0.5]];portConstraint=eastwest;whiteSpace=wrap;html=1;" vertex="1" parent="Xqfd5S_WJphhNs4EICbN-6">
          <mxGeometry y="26" width="160" height="44" as="geometry" />
        </mxCell>
        <mxCell id="Xqfd5S_WJphhNs4EICbN-8" value="" style="line;strokeWidth=1;fillColor=none;align=left;verticalAlign=middle;spacingTop=-1;spacingLeft=3;spacingRight=3;rotatable=0;labelPosition=right;points=[];portConstraint=eastwest;strokeColor=inherit;" vertex="1" parent="Xqfd5S_WJphhNs4EICbN-6">
          <mxGeometry y="70" width="160" height="8" as="geometry" />
        </mxCell>
        <mxCell id="Xqfd5S_WJphhNs4EICbN-9" value="&lt;div&gt;+ getSubject() : string&lt;/div&gt;&lt;div&gt;+ getHours() : int&lt;/div&gt;&lt;div&gt;+ setSubject(string) : void&lt;/div&gt;&lt;div&gt;+ setHours(int) : void&amp;nbsp;&lt;/div&gt;+ getInfo() : string&lt;div&gt;+ Teacher()&lt;/div&gt;&lt;div&gt;+ Teacher(string, int, string, int, int)&lt;/div&gt;" style="text;strokeColor=none;fillColor=none;align=left;verticalAlign=top;spacingLeft=4;spacingRight=4;overflow=hidden;rotatable=0;points=[[0,0.5],[1,0.5]];portConstraint=eastwest;whiteSpace=wrap;html=1;" vertex="1" parent="Xqfd5S_WJphhNs4EICbN-6">
          <mxGeometry y="78" width="160" height="132" as="geometry" />
        </mxCell>
        <mxCell id="Xqfd5S_WJphhNs4EICbN-10" value="Admin" style="swimlane;fontStyle=1;align=center;verticalAlign=top;childLayout=stackLayout;horizontal=1;startSize=26;horizontalStack=0;resizeParent=1;resizeParentMax=0;resizeLast=0;collapsible=1;marginBottom=0;whiteSpace=wrap;html=1;" vertex="1" parent="1">
          <mxGeometry x="580" y="240" width="180" height="240" as="geometry" />
        </mxCell>
        <mxCell id="Xqfd5S_WJphhNs4EICbN-11" value="- department : string&amp;nbsp;&lt;div&gt;- entryHour : int&lt;/div&gt;&lt;div&gt;- exitHour : int&lt;/div&gt;" style="text;strokeColor=none;fillColor=none;align=left;verticalAlign=top;spacingLeft=4;spacingRight=4;overflow=hidden;rotatable=0;points=[[0,0.5],[1,0.5]];portConstraint=eastwest;whiteSpace=wrap;html=1;" vertex="1" parent="Xqfd5S_WJphhNs4EICbN-10">
          <mxGeometry y="26" width="180" height="54" as="geometry" />
        </mxCell>
        <mxCell id="Xqfd5S_WJphhNs4EICbN-12" value="" style="line;strokeWidth=1;fillColor=none;align=left;verticalAlign=middle;spacingTop=-1;spacingLeft=3;spacingRight=3;rotatable=0;labelPosition=right;points=[];portConstraint=eastwest;strokeColor=inherit;" vertex="1" parent="Xqfd5S_WJphhNs4EICbN-10">
          <mxGeometry y="80" width="180" height="8" as="geometry" />
        </mxCell>
        <mxCell id="Xqfd5S_WJphhNs4EICbN-13" value="&lt;div&gt;+ getDepartment() : string&lt;/div&gt;&lt;div&gt;+ getEntryHour() : int&lt;/div&gt;&lt;div&gt;+ getExitHour() : int&lt;/div&gt;&lt;div&gt;+ setDepartment(string) : void&lt;/div&gt;&lt;div&gt;+ setEntryHour(int) : void&lt;/div&gt;&lt;div&gt;+ setEntryHour(int) : void&lt;/div&gt;+ getInfo() : string&lt;div&gt;&lt;div&gt;+ Admin()&lt;/div&gt;&lt;div&gt;+ Admin(string, int, int, string, int, int)&lt;/div&gt;&lt;/div&gt;" style="text;strokeColor=none;fillColor=none;align=left;verticalAlign=top;spacingLeft=4;spacingRight=4;overflow=hidden;rotatable=0;points=[[0,0.5],[1,0.5]];portConstraint=eastwest;whiteSpace=wrap;html=1;" vertex="1" parent="Xqfd5S_WJphhNs4EICbN-10">
          <mxGeometry y="88" width="180" height="152" as="geometry" />
        </mxCell>
        <mxCell id="Xqfd5S_WJphhNs4EICbN-14" value="Record" style="swimlane;fontStyle=1;align=center;verticalAlign=top;childLayout=stackLayout;horizontal=1;startSize=26;horizontalStack=0;resizeParent=1;resizeParentMax=0;resizeLast=0;collapsible=1;marginBottom=0;whiteSpace=wrap;html=1;" vertex="1" parent="1">
          <mxGeometry x="290" y="460" width="220" height="240" as="geometry" />
        </mxCell>
        <mxCell id="Xqfd5S_WJphhNs4EICbN-15" value="- teachers : vector&amp;lt;Teacher&amp;gt;&lt;div&gt;- admins : vector&amp;lt;Admin&amp;gt;&lt;/div&gt;" style="text;strokeColor=none;fillColor=none;align=left;verticalAlign=top;spacingLeft=4;spacingRight=4;overflow=hidden;rotatable=0;points=[[0,0.5],[1,0.5]];portConstraint=eastwest;whiteSpace=wrap;html=1;" vertex="1" parent="Xqfd5S_WJphhNs4EICbN-14">
          <mxGeometry y="26" width="220" height="44" as="geometry" />
        </mxCell>
        <mxCell id="Xqfd5S_WJphhNs4EICbN-16" value="" style="line;strokeWidth=1;fillColor=none;align=left;verticalAlign=middle;spacingTop=-1;spacingLeft=3;spacingRight=3;rotatable=0;labelPosition=right;points=[];portConstraint=eastwest;strokeColor=inherit;" vertex="1" parent="Xqfd5S_WJphhNs4EICbN-14">
          <mxGeometry y="70" width="220" height="8" as="geometry" />
        </mxCell>
        <mxCell id="Xqfd5S_WJphhNs4EICbN-17" value="+ getTeachers() : Teacher&lt;div&gt;+ getTeachers(int) : Teacher&lt;br&gt;&lt;div&gt;+ getAdmins() : Admin&lt;/div&gt;&lt;div&gt;+ getAdmins(int) : Admin&lt;/div&gt;&lt;div&gt;+ setTeachers(Teacher) : void&lt;/div&gt;&lt;div&gt;+ setAdmins(Admin) : void&lt;/div&gt;&lt;/div&gt;&lt;div&gt;+ addTeacher(Teacher) : void&lt;/div&gt;&lt;div&gt;+ addAdmin(Admin) : void&lt;/div&gt;&lt;div&gt;+ setTeachers(vector&amp;lt;Teacher&amp;gt;) : void&lt;/div&gt;&lt;div&gt;+ setAdmins(vector&amp;lt;Admin&amp;gt;) : void&lt;/div&gt;&lt;div&gt;&lt;br&gt;&lt;/div&gt;" style="text;strokeColor=none;fillColor=none;align=left;verticalAlign=top;spacingLeft=4;spacingRight=4;overflow=hidden;rotatable=0;points=[[0,0.5],[1,0.5]];portConstraint=eastwest;whiteSpace=wrap;html=1;" vertex="1" parent="Xqfd5S_WJphhNs4EICbN-14">
          <mxGeometry y="78" width="220" height="162" as="geometry" />
        </mxCell>
        <mxCell id="fRk5uQOCOeqiqAEpojrQ-1" value="" style="endArrow=block;endSize=16;endFill=0;html=1;rounded=0;" edge="1" parent="1">
          <mxGeometry width="160" relative="1" as="geometry">
            <mxPoint x="400" y="210" as="sourcePoint" />
            <mxPoint x="400" y="170" as="targetPoint" />
          </mxGeometry>
        </mxCell>
        <mxCell id="fRk5uQOCOeqiqAEpojrQ-2" value="" style="line;strokeWidth=1;fillColor=none;align=left;verticalAlign=middle;spacingTop=-1;spacingLeft=3;spacingRight=3;rotatable=0;labelPosition=right;points=[];portConstraint=eastwest;strokeColor=inherit;" vertex="1" parent="1">
          <mxGeometry x="120" y="207" width="560" height="8" as="geometry" />
        </mxCell>
        <mxCell id="fRk5uQOCOeqiqAEpojrQ-5" value="" style="endArrow=none;html=1;rounded=0;entryX=0.5;entryY=0;entryDx=0;entryDy=0;" edge="1" parent="1" target="Xqfd5S_WJphhNs4EICbN-6">
          <mxGeometry width="50" height="50" relative="1" as="geometry">
            <mxPoint x="120" y="210" as="sourcePoint" />
            <mxPoint x="410" y="200" as="targetPoint" />
          </mxGeometry>
        </mxCell>
        <mxCell id="fRk5uQOCOeqiqAEpojrQ-6" value="" style="endArrow=none;html=1;rounded=0;exitX=0.998;exitY=0.65;exitDx=0;exitDy=0;exitPerimeter=0;" edge="1" parent="1" source="fRk5uQOCOeqiqAEpojrQ-2">
          <mxGeometry width="50" height="50" relative="1" as="geometry">
            <mxPoint x="670.5" y="235" as="sourcePoint" />
            <mxPoint x="679" y="240" as="targetPoint" />
          </mxGeometry>
        </mxCell>
        <mxCell id="fRk5uQOCOeqiqAEpojrQ-7" value="" style="endArrow=diamondThin;endFill=0;endSize=24;html=1;rounded=0;" edge="1" parent="1">
          <mxGeometry width="160" relative="1" as="geometry">
            <mxPoint x="110" y="580" as="sourcePoint" />
            <mxPoint x="270" y="580" as="targetPoint" />
          </mxGeometry>
        </mxCell>
        <mxCell id="fRk5uQOCOeqiqAEpojrQ-8" value="" style="endArrow=none;html=1;rounded=0;entryX=0.437;entryY=1.023;entryDx=0;entryDy=0;entryPerimeter=0;" edge="1" parent="1" target="Xqfd5S_WJphhNs4EICbN-9">
          <mxGeometry width="50" height="50" relative="1" as="geometry">
            <mxPoint x="110" y="580" as="sourcePoint" />
            <mxPoint x="410" y="470" as="targetPoint" />
          </mxGeometry>
        </mxCell>
        <mxCell id="fRk5uQOCOeqiqAEpojrQ-9" value="" style="endArrow=diamondThin;endFill=0;endSize=24;html=1;rounded=0;" edge="1" parent="1">
          <mxGeometry width="160" relative="1" as="geometry">
            <mxPoint x="680" y="580" as="sourcePoint" />
            <mxPoint x="520" y="580" as="targetPoint" />
          </mxGeometry>
        </mxCell>
        <mxCell id="fRk5uQOCOeqiqAEpojrQ-10" value="" style="endArrow=none;html=1;rounded=0;" edge="1" parent="1">
          <mxGeometry width="50" height="50" relative="1" as="geometry">
            <mxPoint x="680" y="580" as="sourcePoint" />
            <mxPoint x="680" y="480" as="targetPoint" />
          </mxGeometry>
        </mxCell>
      </root>
    </mxGraphModel>
  </diagram>
</mxfile>
